<?xml version="1.0" encoding="utf-8"?>
<!-- Generator: Adobe Illustrator 22.0.1, SVG Export Plug-In . SVG Version: 6.00 Build 0)  -->
<svg version="1.1" id="Layer_1" xmlns="http://www.w3.org/2000/svg" xmlns:xlink="http://www.w3.org/1999/xlink" x="0px" y="0px"
	 viewBox="0 0 512 512" style="enable-background:new 0 0 512 512;" xml:space="preserve">
<style type="text/css">
	.st0{fill:#FFFFFF;}
</style>
<g>
	<g>
		<rect x="272.7" y="280.3" class="st0" width="183.1" height="231.7"/>
	</g>
</g>
<g>
	<g>
		<rect x="56.2" y="280.3" class="st0" width="183.1" height="231.7"/>
	</g>
</g>
<g>
	<g>
		<path class="st0" d="M398.8,94.4c5-9.1,7.8-19.5,7.8-30.5c0-35.2-28.7-63.9-63.9-63.9c-26.1,0-52.7,13.5-73.2,37
			c-5.1,5.8-9.6,12.1-13.5,18.6c-3.9-6.5-8.4-12.7-13.5-18.6c-20.4-23.5-47.1-37-73.2-37c-35.2,0-63.9,28.7-63.9,63.9
			c0,11,2.8,21.4,7.8,30.5h-87V247h213.1V94.4h33.4V247h213.1V94.4H398.8z M169.4,94.4c-16.8,0-30.5-13.7-30.5-30.5
			s13.7-30.5,30.5-30.5c30.3,0,59.1,31,67.5,61L169.4,94.4L169.4,94.4z M342.6,94.4h-67.5c8.4-30,37.2-61,67.5-61
			c16.8,0,30.5,13.7,30.5,30.5C373.1,80.7,359.5,94.4,342.6,94.4z"/>
	</g>
</g>
</svg>
