<svg id="Capa_1" xmlns="http://www.w3.org/2000/svg" viewBox="0 0 134 78"><style>.st0,.st1{fill:#fff}.st1{fill-rule:evenodd;clip-rule:evenodd}</style><path class="st0" d="M.1 17.2c.5-.9 4.5-1.5 7.9-2.1 0 0 5.4-.8 5.8-.8.5-.1 2.3-.4 2.5.9.2 1.6-1.3 1.5-2.3 2.3-.8.7-1.4 4-1.7 27.2-.4 24.5-.4 26 .8 27.2 1.9 1.7 4.8.5 5.3.9s.6 1.6.3 2c-.3.4-1.8-.1-8.5 1-3.8.6-7 2.6-7.7 2.2-.3-.2-.5-.6-.5-1.5 0-.6 2.1-1.3 3.1-3.3.5-1 1-8 .9-28.3-.2-20.4.2-26.5-.2-26.7-.4-.1-4.9 1.4-5.5 1-.5-.3-.2-2-.2-2z"/><path class="st0" d="M16.2 44.2s4.3-4.1 13-14.7c8.6-10.6 10.3-13.1 12.3-14.9.4-.3 1.6-.1 2.4-.1.8 0 2-.1 2.2.3.4.9-2.6 5.3-11.2 15.2-7.4 8.6-7.9 8.5-11.5 12.5 1.3 2 2.7 5.1 10.8 16.2 8.1 11.1 12.2 13.6 14 14.9 1.9 1.3 3.9 1.8 3.8 2.8-.1.9-2.3.6-3 .6-.8 0-5.5-.3-8.3-2.1-2.8-1.8-6.3-4.7-12.9-13.7s-11.6-17-11.6-17z"/><path class="st0" d="M47.8 42.2l4.6 11.4s10.1-19 11.7-22.5c.2-.5.6-.6.8-.6.5.1.6.2.7 2.8.1 2.8-.2 4-.5 4.7-2.1 3.8-17.3 29.6-17.7 30.2-.4.6-.6.8-.8.9-.2.2-1.8.5-2.2 0-.4-.5.5-1.4.7-1.9.3-.5 3.9-6.7 3.9-8 0-2.1-3.1-7.8-8.5-20.2-.5-1.2-1.2-2.5-2.3-2.8-1.4-.4-2.6.8-3.3.7-.6-.1-.9-1.1-.8-1.5.1-.4 2-1 4.3-2.1 2.2-1 4-2.1 4.6-2.1.5 0 2.6 5.5 4.8 11z"/><path class="st1" d="M71.4 57.9c-3.2 0-3.8-2.4-3.8-3.5 0-6.7 11.7-8.7 11.7-8.7s.9 12.2-7.9 12.2zM90 59c-.1-.3-.4-.5-.7-.5-4.7 0-5.4-4.7-5.4-7.4s.4-9.2.2-11.2c-.1-2-.4-5.3-2-6.7-1.6-1.4-3.5-1.6-6.4-1.6s-5.1.5-6.3 1.6c-1.2 1.1-1.2 3.6-.9 3.8.5.5 6.2-2.8 8.9-.1 2.8 2.8 1.9 6.9 1.9 6.9s-17.1 2.4-17.1 12.6c0 1.1.5 5.2 5.5 5.2 6.7 0 11.2-5.8 11.2-5.8s.2 5.7 5.3 5.7c4.1 0 5.7-1.8 5.8-2s.1-.2 0-.5z"/><path class="st0" d="M71.8 23c0 1.1-.8 2-1.8 2s-1.8-.9-1.8-2 .8-2 1.8-2 1.8.9 1.8 2zm9.6-.4c0 1.1-.8 2-1.8 2s-1.8-.9-1.8-2 .8-2 1.8-2 1.8.9 1.8 2zm14.3 13.8c.6-.5 6.6-4.4 11.2-4.4s6.5 3.7 6.5 14c0 6.5-.3 7.9-.3 10 0 1.2.7 1.2 1.2 1.2s1.8-.6 2.1-.6.6.6.6 1.1c0 1-2.1 1.2-4.4 2.2-2.1.9-4.1 2.3-4.7 2.3-.4 0-.7-.6-.7-.8 0-.3 1.4-4 1.4-12.4s-1.7-13.1-6.6-13.1c-3.4 0-6 3.1-6 3.1v7.6c0 3.9 0 13.1-.3 13.8-.3.5-.7.4-1.8.8-1 .4-2.5 1.2-2.6.2-.5-12.5 1.7-25-3.8-25-.6 0-.8.2-1.2.2-.5 0-.8-.6-.8-1 0-.6 1.3-.9 3.3-1.9s2.9-2 3.3-2c1.8-.2 3.5 4.1 3.6 4.7zM125 60.1c.5-1 .2-7.5.2-20.9 0-2.3.3-5.5.3-6.6 0-.4-.8-1-1.1-1s-2.5 1-3.6 1.6c-1.6.8-5.2 1.3-5.2 2.3s.6 1.3.7 1.2c.4-.1 1-.6 1.8-.5 2.6.4 2 1.7 2 22.8 0 2.2.1 2.9.4 3 .3.1 1.7-.5 2.4-.8.8-.3 1.7-.4 2.1-1.1z"/><path class="st1" d="M118.6 10.8c-3.3 4.7-7.1 6-9.5 5.6-.3-1-.4-2-.4-3.1 0-6.5 5.6-11.8 12.4-11.8 4.6 0 8.4 2.4 10.6 6-.7-.8-6.1-6.5-13.1 3.3zm8.7-9.1C125.2.5 123 0 120.8 0c-4.6 0-9.1 2.4-11.5 6.7-3.5 6.2-1.4 14 4.6 17.7.9-.1 1.7-.7 2.5-2.2 2.4-5.1 7.7-7 13-3.6.2.2.5.3.7.6-2.6.1-3.9 3.1-3.9 3.1s-.2.3-.3.5c-.9 1.5-2.2 2.8-3.7 3.5 4.1-.4 8-2.8 10.2-6.6 3.5-6.4 1.2-14.4-5.1-18z"/><path class="st0" d="M120 21.8c-2.5 4.1-5.6 5.6-9.5 3.3 0 .1 6.6 4.9 10.7-1.8 3.2-5.2 6.5-4.4 6.5-4.4s-.7-.2-1.7-.2c-1.8 0-4.5.5-6 3.1z"/><path class="st1" d="M131.2 33.7h.4c.3 0 .7 0 .7-.4 0-.3-.3-.4-.6-.4h-.5v.8zm-.3-1.1h.9c.6 0 .9.2.9.7 0 .4-.3.6-.6.7l.7 1.1h-.4l-.7-1.1h-.4v1.1h-.3v-2.5zm.8 3.1c1 0 1.8-.8 1.8-1.8s-.8-1.8-1.8-1.8-1.8.8-1.8 1.8.8 1.8 1.8 1.8zm0-4c1.2 0 2.1.9 2.1 2.1 0 1.2-1 2.1-2.1 2.1s-2.1-.9-2.1-2.1c0-1.2.9-2.1 2.1-2.1z"/></svg>