<?xml version="1.0" encoding="utf-8"?>
<!-- Generator: Adobe Illustrator 22.0.1, SVG Export Plug-In . SVG Version: 6.00 Build 0)  -->
<svg version="1.1" id="Capa_1" xmlns="http://www.w3.org/2000/svg" xmlns:xlink="http://www.w3.org/1999/xlink" x="0px" y="0px"
	 viewBox="0 0 477 477" style="enable-background:new 0 0 477 477;" xml:space="preserve">
<style type="text/css">
	.st0{fill:#FFFFFF;}
</style>
<g>
	<g>
		<path class="st0" d="M447.2,232.7c1.9,0,2.8,0.4,4.1,1.7c1.3,1.3,1.7,2.2,1.7,4.1c0,1.9-0.4,2.8-1.7,4.1c-1.3,1.3-2.2,1.7-4.1,1.7
			h-3.5h-20.2l-3.5,19.9l-26.8,154.2c-0.3,1.5-0.7,2.4-2,3.4c-1.4,1.2-2.4,1.4-3.7,1.4H89.4c-1.3,0-2.3-0.2-3.7-1.4
			c-1.2-1-1.7-1.8-2-3.4L57,264.2l-3.5-19.9H33.3h-3.5c-1.9,0-2.8-0.4-4.1-1.7c-1.3-1.3-1.7-2.2-1.7-4.1c0-1.9,0.4-2.8,1.7-4.1
			c1.3-1.3,2.2-1.7,4.1-1.7L447.2,232.7 M447.2,208.7H29.8c-8.2,0-15.3,2.9-21.1,8.7S0,230.3,0,238.5s2.9,15.3,8.7,21.1
			c5.8,5.8,12.8,8.7,21.1,8.7h3.5l26.8,154.2c1.2,7.1,4.7,13,10.2,17.7c5.6,4.7,12,7,19.1,7h298.1c7.1,0,13.5-2.3,19.1-7
			s9-10.6,10.2-17.7l26.8-154.2h3.5c8.2,0,15.3-2.9,21.1-8.7c5.8-5.8,8.7-12.8,8.7-21.1c0-8.2-2.9-15.3-8.7-21.1
			C462.4,211.6,455.4,208.7,447.2,208.7L447.2,208.7z"/>
	</g>
	<g>
		<path class="st0" d="M110.9,97.8l-21.7,96H58.5L82,91.1c2.9-13.7,9.9-24.8,20.7-33.4c10.9-8.7,23.3-13,37.3-13h38.9
			c0-4,1.5-7.5,4.4-10.5c2.9-2.9,6.4-4.4,10.5-4.4h89.4c4,0,7.5,1.5,10.5,4.4c2.9,3,4.4,6.4,4.4,10.5H337c14,0,26.4,4.3,37.3,12.9
			S392.1,77.4,395,91l23.5,102.7h-30.7l-21.7-96c-1.7-6.8-5.2-12.4-10.6-16.8c-5.4-4.3-11.5-6.5-18.5-6.5h-38.9
			c0,4-1.5,7.5-4.4,10.5c-3,3-6.4,4.4-10.5,4.4h-89.4c-4,0-7.5-1.5-10.5-4.4s-4.4-6.4-4.4-10.5H140c-7,0-13.2,2.2-18.5,6.5
			C116.1,85.4,112.6,91,110.9,97.8z"/>
	</g>
</g>
</svg>
